<?xml version="1.0" standalone="no"?>
<!DOCTYPE svg PUBLIC "-//W3C//DTD SVG 20010904//EN"
 "http://www.w3.org/TR/2001/REC-SVG-20010904/DTD/svg10.dtd">
<svg version="1.0" xmlns="http://www.w3.org/2000/svg"
 width="1024.000000pt" height="1024.000000pt" viewBox="0 0 1024.000000 1024.000000"
 preserveAspectRatio="xMidYMid meet">
<metadata>
Created by potrace 1.14, written by Peter Selinger 2001-2017
</metadata>
<g transform="translate(0.000000,1024.000000) scale(0.100000,-0.100000)"
fill="#000000" stroke="none">
<path d="M3455 8207 c-3 -7 -4 -131 -3 -277 l3 -265 1645 0 1645 0 3 278 2
277 -1645 0 c-1318 0 -1647 -3 -1650 -13z"/>
<path d="M3450 6018 l1 -1363 97 -101 c53 -56 124 -130 157 -165 180 -192 363
-387 385 -409 14 -15 54 -57 89 -96 35 -38 101 -107 145 -154 45 -47 153 -162
241 -255 338 -359 324 -344 475 -507 l53 -58 801 -2 801 -3 3 -93 c2 -83 1
-92 -15 -92 -10 0 -745 -1 -1633 -3 l-1615 -2 0 -190 0 -190 1633 -3 1633 -2
-3 -98 -3 -97 -1602 -3 -1603 -2 0 -55 0 -55 1660 0 1660 0 0 210 0 210 -1619
0 c-891 0 -1626 3 -1635 6 -13 5 -16 22 -16 80 l0 74 1633 2 1632 3 0 205 0
205 -792 3 c-436 1 -793 5 -793 8 0 3 96 107 213 231 116 124 293 312 392 418
99 106 281 299 405 430 124 131 291 309 373 396 l147 158 0 1360 0 1361 -1650
0 -1650 0 0 -1362z m3028 -77 l2 -1175 -88 -90 c-48 -50 -148 -156 -222 -236
-74 -80 -178 -190 -230 -245 -53 -55 -127 -134 -165 -175 -39 -41 -122 -128
-185 -195 -63 -66 -164 -173 -224 -238 -60 -64 -113 -117 -118 -117 -4 0 -8
476 -8 1058 l0 1058 43 46 c43 44 77 120 77 169 0 67 -48 161 -104 204 -38 29
-112 55 -156 55 -56 0 -131 -33 -175 -77 -59 -59 -79 -114 -73 -202 5 -72 34
-129 92 -178 l26 -23 0 -1054 c0 -580 -4 -1057 -8 -1060 -5 -3 -28 16 -52 42
-99 106 -340 363 -425 452 -129 136 -222 235 -296 315 -35 38 -107 115 -160
170 -52 55 -131 138 -174 185 -43 47 -91 98 -107 114 l-28 28 0 1168 c0 641 3
1170 7 1173 3 4 623 6 1377 5 l1371 -3 3 -1174z"/>
</g>
</svg>
